<svg width="512" height="512" viewBox="0 -443 2197 2197" fill="none" xmlns="http://www.w3.org/2000/svg">
<path d="M869.6 254.984C1062.41 252.744 1259.41 255.002 1452.51 255.193L1452.31 369.249L1554.87 369.08L1555.49 483.736L1659 483.176L1658.78 1053L1428.25 1052.96L1428.22 728.791L1428.38 484.478L1099.69 484.434C1102.07 672.469 1100.53 864.574 1100.84 1052.94L869 1052.99L869.6 254.984Z" fill="#D80032"/>
<path d="M204.704 0.0222429L438.952 0L438.859 256.601C371.472 255.157 300.274 256.419 232.578 256.379L232.622 1053.97L439 1053.76L438.976 1311L204.551 1310.92L204.688 1075.54L0 1075.44L0.205317 232.14L204.684 231.918L204.704 0.0222429Z" fill="#D80032"/>
<path d="M1758 0L1992.22 0.0400103L1992.14 232.217L2196.96 232.071L2197 1075.5L1992.14 1075.64L1992.26 1311L1758.09 1310.98V1053.79L1964.37 1053.81L1964.41 256.492L1758 256.554L1758 0Z" fill="#D80032"/>
<path d="M539.102 255.52L770 255C764.924 510.808 768.931 796.099 769.726 1053L538.111 1052.89C538.284 796.525 532.656 509.836 539.102 255.52Z" fill="#D80032"/>
</svg>
