<svg xmlns="http://www.w3.org/2000/svg" xmlns:xlink="http://www.w3.org/1999/xlink" width="350" zoomAndPan="magnify" viewBox="0 0 262.5 74.999997" height="100" preserveAspectRatio="xMidYMid meet" version="1.2"><defs/><g id="518f746b0a"><g style="fill:#ffffff;fill-opacity:1;"><g transform="translate(2.421169, 53.868818)"><path style="stroke:none" d="M 28.390625 -33.40625 C 29.617188 -33.40625 30.738281 -33.101562 31.75 -32.5 C 32.769531 -31.90625 33.578125 -31.097656 34.171875 -30.078125 C 34.765625 -29.066406 35.0625 -27.945312 35.0625 -26.71875 L 35.0625 -20.046875 C 35.0625 -18.816406 34.765625 -17.691406 34.171875 -16.671875 C 33.578125 -15.660156 32.769531 -14.851562 31.75 -14.25 C 30.738281 -13.65625 29.617188 -13.359375 28.390625 -13.359375 L 8.34375 -13.359375 L 8.34375 0 L 1.671875 0 L 1.671875 -33.40625 Z M 8.34375 -20.046875 L 28.390625 -20.046875 L 28.390625 -26.71875 L 8.34375 -26.71875 Z M 8.34375 -20.046875 "/></g></g><g style="fill:#ffffff;fill-opacity:1;"><g transform="translate(39.156517, 53.868818)"><path style="stroke:none" d="M 28.390625 0 L 8.34375 0 C 7.125 0 6.003906 -0.296875 4.984375 -0.890625 C 3.972656 -1.492188 3.164062 -2.300781 2.5625 -3.3125 C 1.96875 -4.332031 1.671875 -5.457031 1.671875 -6.6875 L 1.671875 -26.71875 C 1.671875 -27.945312 1.96875 -29.066406 2.5625 -30.078125 C 3.164062 -31.097656 3.972656 -31.90625 4.984375 -32.5 C 6.003906 -33.101562 7.125 -33.40625 8.34375 -33.40625 L 28.390625 -33.40625 C 29.617188 -33.40625 30.738281 -33.101562 31.75 -32.5 C 32.769531 -31.90625 33.578125 -31.097656 34.171875 -30.078125 C 34.765625 -29.066406 35.0625 -27.945312 35.0625 -26.71875 L 35.0625 -6.6875 C 35.0625 -5.488281 34.765625 -4.378906 34.171875 -3.359375 C 33.578125 -2.347656 32.773438 -1.535156 31.765625 -0.921875 C 30.765625 -0.304688 29.640625 0 28.390625 0 Z M 8.34375 -26.71875 L 8.34375 -6.6875 L 28.390625 -6.6875 L 28.390625 -26.71875 Z M 8.34375 -26.71875 "/></g></g><g style="fill:#ffffff;fill-opacity:1;"><g transform="translate(75.891864, 53.868818)"><path style="stroke:none" d="M 35.0625 -26.71875 L 35.0625 -20.046875 C 35.0625 -18.816406 34.765625 -17.691406 34.171875 -16.671875 C 33.578125 -15.660156 32.769531 -14.851562 31.75 -14.25 C 30.738281 -13.65625 29.617188 -13.359375 28.390625 -13.359375 L 21.703125 -13.359375 L 28.390625 -6.6875 L 35.0625 -6.6875 L 35.0625 0 L 27.046875 0 C 26.109375 0 25.300781 -0.332031 24.625 -1 L 12.28125 -13.359375 L 8.34375 -13.359375 L 8.34375 0 L 1.671875 0 L 1.671875 -33.40625 L 28.390625 -33.40625 C 29.617188 -33.40625 30.738281 -33.101562 31.75 -32.5 C 32.769531 -31.90625 33.578125 -31.097656 34.171875 -30.078125 C 34.765625 -29.066406 35.0625 -27.945312 35.0625 -26.71875 Z M 28.390625 -26.71875 L 8.34375 -26.71875 L 8.34375 -20.046875 L 28.390625 -20.046875 Z M 28.390625 -26.71875 "/></g></g><g style="fill:#ffffff;fill-opacity:1;"><g transform="translate(112.627211, 53.868818)"><path style="stroke:none" d="M 8.34375 0 L 1.671875 0 L 1.671875 -30.0625 C 1.671875 -30.976562 1.992188 -31.765625 2.640625 -32.421875 C 3.296875 -33.078125 4.085938 -33.40625 5.015625 -33.40625 C 5.929688 -33.40625 6.722656 -33.066406 7.390625 -32.390625 L 28.390625 -11.390625 L 28.390625 -33.40625 L 35.0625 -33.40625 L 35.0625 -3.34375 C 35.0625 -2.425781 34.734375 -1.640625 34.078125 -0.984375 C 33.429688 -0.328125 32.648438 0 31.734375 0 C 30.816406 0 30.019531 -0.332031 29.34375 -1 L 8.34375 -22 Z M 8.34375 0 "/></g></g><g style="fill:#d80032;fill-opacity:1;"><g transform="translate(149.363929, 53.868818)"><path style="stroke:none" d="M 28.390625 0 L 1.671875 0 L 1.671875 -6.6875 L 28.390625 -6.6875 L 28.390625 -13.359375 L 1.671875 -13.359375 L 1.671875 -33.40625 L 35.0625 -33.40625 L 35.0625 -26.71875 L 8.34375 -26.71875 L 8.34375 -20.046875 L 28.390625 -20.046875 C 29.617188 -20.046875 30.738281 -19.742188 31.75 -19.140625 C 32.769531 -18.546875 33.578125 -17.738281 34.171875 -16.71875 C 34.765625 -15.707031 35.0625 -14.585938 35.0625 -13.359375 L 35.0625 -6.6875 C 35.0625 -5.457031 34.765625 -4.332031 34.171875 -3.3125 C 33.578125 -2.300781 32.769531 -1.492188 31.75 -0.890625 C 30.738281 -0.296875 29.617188 0 28.390625 0 Z M 28.390625 0 "/></g></g><g style="fill:#d80032;fill-opacity:1;"><g transform="translate(186.099276, 53.868818)"><path style="stroke:none" d="M 28.390625 0 L 8.34375 0 C 7.125 0 6.003906 -0.296875 4.984375 -0.890625 C 3.972656 -1.492188 3.164062 -2.300781 2.5625 -3.3125 C 1.96875 -4.332031 1.671875 -5.457031 1.671875 -6.6875 L 1.671875 -26.71875 C 1.671875 -27.945312 1.96875 -29.066406 2.5625 -30.078125 C 3.164062 -31.097656 3.972656 -31.90625 4.984375 -32.5 C 6.003906 -33.101562 7.125 -33.40625 8.34375 -33.40625 L 28.390625 -33.40625 C 29.617188 -33.40625 30.738281 -33.101562 31.75 -32.5 C 32.769531 -31.90625 33.578125 -31.097656 34.171875 -30.078125 C 34.765625 -29.066406 35.0625 -27.945312 35.0625 -26.71875 L 35.0625 -6.6875 C 35.0625 -5.488281 34.765625 -4.378906 34.171875 -3.359375 C 33.578125 -2.347656 32.773438 -1.535156 31.765625 -0.921875 C 30.765625 -0.304688 29.640625 0 28.390625 0 Z M 8.34375 -26.71875 L 8.34375 -6.6875 L 28.390625 -6.6875 L 28.390625 -26.71875 Z M 21.703125 -13.359375 L 15.03125 -13.359375 L 15.03125 -20.046875 L 21.703125 -20.046875 Z M 21.703125 -13.359375 "/></g></g><g style="fill:#d80032;fill-opacity:1;"><g transform="translate(222.834623, 53.868818)"><path style="stroke:none" d="M 28.390625 0 L 8.34375 0 C 7.125 0 6.003906 -0.296875 4.984375 -0.890625 C 3.972656 -1.492188 3.164062 -2.300781 2.5625 -3.3125 C 1.96875 -4.332031 1.671875 -5.457031 1.671875 -6.6875 L 1.671875 -26.71875 C 1.671875 -27.945312 1.96875 -29.066406 2.5625 -30.078125 C 3.164062 -31.097656 3.972656 -31.90625 4.984375 -32.5 C 6.003906 -33.101562 7.125 -33.40625 8.34375 -33.40625 L 28.390625 -33.40625 C 29.617188 -33.40625 30.738281 -33.101562 31.75 -32.5 C 32.769531 -31.90625 33.578125 -31.097656 34.171875 -30.078125 C 34.765625 -29.066406 35.0625 -27.945312 35.0625 -26.71875 L 35.0625 -6.6875 C 35.0625 -5.488281 34.765625 -4.378906 34.171875 -3.359375 C 33.578125 -2.347656 32.773438 -1.535156 31.765625 -0.921875 C 30.765625 -0.304688 29.640625 0 28.390625 0 Z M 8.34375 -26.71875 L 8.34375 -6.6875 L 28.390625 -6.6875 L 28.390625 -26.71875 Z M 21.703125 -13.359375 L 15.03125 -13.359375 L 15.03125 -20.046875 L 21.703125 -20.046875 Z M 21.703125 -13.359375 "/></g></g></g></svg>