<svg version="1.1" xmlns="http://www.w3.org/2000/svg" style="display: block;" viewBox="0 0 2048 571" width="4096" height="1142" preserveAspectRatio="xMidYMid meet">
<path transform="translate(0,0)" fill="rgb(238,238,238)" d="M 1411.61 191.404 C 1463.19 188.232 1507.59 227.433 1510.84 279.008 C 1514.08 330.582 1474.94 375.039 1423.37 378.356 C 1371.7 381.679 1327.14 342.445 1323.89 290.769 C 1320.64 239.093 1359.93 194.583 1411.61 191.404 z"/>
<path transform="translate(0,0)" fill="white" style="mix-blend-mode:destination-out" d="M 1413.37 229.363 C 1480.22 222.311 1492.53 334.136 1420.8 340.44 C 1352.38 344.265 1343.16 237.204 1413.37 229.363 z"/>
<path transform="translate(0,0)" fill="rgb(238,238,238)" d="M 171.003 195.525 L 229.11 195.435 C 268.163 195.415 318.952 194.84 312.587 252.92 C 311.192 265.641 303.376 273.154 293.441 280.282 C 295.256 281.111 297.051 281.983 298.825 282.898 C 324.164 296.088 328.522 326.944 316.035 350.762 C 314.059 353.9 311.745 356.812 309.135 359.446 C 290.634 377.944 256.035 375.125 231.744 375.089 L 170.989 374.932 C 170.35 315.569 170.92 254.983 171.003 195.525 z"/>
<path transform="translate(0,0)" fill="white" style="mix-blend-mode:destination-out" d="M 211.206 298.735 C 230.351 298.563 280.147 291.77 281.99 316.351 C 282.646 325.106 281.452 329.12 275.992 335.682 C 263.729 343.315 227.618 340.902 211.333 340.827 C 211.027 327.105 211.239 312.525 211.206 298.735 z"/>
<path transform="translate(0,0)" fill="white" style="mix-blend-mode:destination-out" d="M 211.195 229.053 C 228.397 228.865 274.316 222.508 273.084 247.302 C 272.7 255.048 271.92 256.843 266.537 262.304 C 252.989 268.794 226.873 266.553 211.227 266.322 L 211.195 229.053 z"/>
<path transform="translate(0,0)" fill="rgb(210,0,46)" d="M 764.224 195.402 C 812.089 194.898 860.993 195.406 908.929 195.449 L 908.879 221.119 L 934.339 221.081 L 934.491 246.886 L 960.188 246.76 L 960.133 375.007 L 902.905 374.997 L 902.897 302.039 L 902.937 247.053 L 821.342 247.043 C 821.933 289.363 821.552 332.599 821.628 374.993 L 764.075 375.004 L 764.224 195.402 z"/>
<path transform="translate(0,0)" fill="rgb(238,238,238)" d="M 1535.15 195.61 C 1562.16 195.594 1625.27 192.013 1648.24 199.996 C 1661.9 204.746 1673.98 213.955 1680.35 227.162 C 1687.23 241.422 1687.55 260.424 1682.29 275.249 C 1676.63 291.192 1665.21 300.126 1650.48 307.124 C 1662.51 328.025 1679.85 354.299 1693.13 374.927 L 1664.74 374.987 L 1646.21 374.994 C 1634.11 356.525 1619.81 332.189 1608.71 313.025 L 1575.66 313.008 L 1575.6 374.922 C 1562.21 375.095 1548.51 374.957 1535.1 374.967 L 1535.15 195.61 z"/>
<path transform="translate(0,0)" fill="white" style="mix-blend-mode:destination-out" d="M 1575.73 230.801 C 1583.66 230.718 1601.97 231.695 1608.82 230.571 C 1634.56 226.341 1658.95 247.921 1637.85 271.476 C 1625.16 280.604 1592.58 277.71 1575.67 277.6 C 1575.25 262.767 1575.38 245.637 1575.73 230.801 z"/>
<path transform="translate(0,0)" fill="rgb(238,238,238)" d="M 1715.11 195.528 L 1752.95 195.518 C 1770.89 219.041 1788.58 242.752 1806.01 266.648 C 1815.57 279.615 1826.72 295.593 1836.88 307.838 C 1835.16 274.824 1836.68 229.468 1836.83 195.521 L 1876.96 195.521 L 1876.97 373.743 C 1873.57 376.009 1844.51 375.049 1838.45 375.017 C 1810.62 339.019 1782.09 299.561 1755.21 262.718 L 1755.17 374.929 C 1741.88 375.06 1728.35 374.924 1715.04 374.915 L 1715.11 195.528 z"/>
<path transform="translate(0,0)" fill="rgb(238,238,238)" d="M 1161 195.519 C 1186.18 195.475 1239.46 193.104 1261.26 197.745 C 1327 211.737 1325.44 308.173 1249.24 316.748 C 1234.2 317.52 1216.5 317.163 1201.25 317.189 C 1200.98 336.278 1201.2 355.766 1201.21 374.886 C 1187.94 375.061 1174.34 374.922 1161.03 374.937 L 1161 195.519 z"/>
<path transform="translate(0,0)" fill="white" style="mix-blend-mode:destination-out" d="M 1201.23 230.821 C 1208.1 230.736 1215.48 230.783 1222.25 230.597 C 1240.72 230.09 1265.47 229.352 1267.05 253.837 C 1267.67 263.4 1265.54 268.115 1259.28 275.329 C 1246.53 285.087 1218.29 282.271 1201.21 282.148 L 1201.23 230.821 z"/>
<path transform="translate(0,0)" fill="rgb(210,0,46)" d="M 599.033 138.005 L 657.248 138 L 657.225 195.738 C 640.478 195.413 622.784 195.697 605.96 195.688 L 605.971 375.154 L 657.26 375.108 L 657.254 432.989 L 598.995 432.972 L 599.029 380.008 L 548.16 379.985 L 548.211 190.234 L 599.028 190.184 L 599.033 138.005 z"/>
<path transform="translate(0,0)" fill="rgb(210,0,46)" d="M 984.855 137.994 L 1042.98 138.003 L 1042.96 190.245 L 1093.79 190.212 L 1093.8 379.991 L 1042.96 380.023 L 1042.99 432.981 L 984.878 432.976 L 984.878 375.106 L 1036.07 375.112 L 1036.08 195.707 L 984.856 195.721 L 984.855 137.994 z"/>
<path transform="translate(0,0)" fill="rgb(238,238,238)" d="M 460.09 195.504 L 480.127 195.684 L 480.108 230.707 L 385.764 230.839 C 385.573 242.547 385.588 254.259 385.81 265.967 L 468.903 265.959 L 468.872 299.966 C 441.35 300.337 413.233 300.085 385.665 300.113 L 385.724 339.515 L 451.75 339.459 L 482.322 339.431 L 482.243 374.945 L 345.487 374.975 C 344.958 317.232 344.433 253.01 345.726 195.553 L 460.09 195.504 z"/>
<path transform="translate(0,0)" fill="rgb(210,0,46)" d="M 682.122 195.448 L 739.392 195.331 C 738.133 252.927 739.127 317.161 739.324 375.003 L 681.876 374.979 C 681.919 317.257 680.523 252.708 682.122 195.448 z"/>
</svg>