<svg xmlns="http://www.w3.org/2000/svg" xmlns:xlink="http://www.w3.org/1999/xlink" width="350" zoomAndPan="magnify" viewBox="0 0 262.5 74.999997" height="100" preserveAspectRatio="xMidYMid meet" version="1.2"><defs><clipPath id="1384fff1db"><path d="M 62 0.0703125 L 75 0.0703125 L 75 21 L 62 21 Z M 62 0.0703125 "/></clipPath><clipPath id="7fc421245b"><path d="M 99 0.0703125 L 120 0.0703125 L 120 21 L 99 21 Z M 99 0.0703125 "/></clipPath><clipPath id="d47b925078"><path d="M 145 0.0703125 L 159 0.0703125 L 159 21 L 145 21 Z M 145 0.0703125 "/></clipPath><clipPath id="f4700e0b18"><path d="M 183 0.0703125 L 200 0.0703125 L 200 21 L 183 21 Z M 183 0.0703125 "/></clipPath></defs><g id="e0e91d048d"><g style="fill:#d80032;fill-opacity:1;"><g transform="translate(66.482738, 72.593233)"><path style="stroke:none" d="M 16.109375 -28.1875 C 23.023438 -28.1875 28.0625 -26.945312 31.21875 -24.46875 C 34.382812 -21.988281 35.96875 -18.519531 35.96875 -14.0625 C 35.96875 -11.289062 35.316406 -8.8125 34.015625 -6.625 C 32.722656 -4.4375 30.78125 -2.71875 28.1875 -1.46875 C 25.59375 -0.21875 22.410156 0.40625 18.640625 0.40625 C 15.222656 0.40625 11.976562 -0.148438 8.90625 -1.265625 C 5.832031 -2.378906 3.363281 -3.867188 1.5 -5.734375 L 3.890625 -9.625 C 5.484375 -7.988281 7.578125 -6.65625 10.171875 -5.625 C 12.765625 -4.601562 15.5625 -4.09375 18.5625 -4.09375 C 22.519531 -4.09375 25.582031 -4.976562 27.75 -6.75 C 29.914062 -8.53125 31 -10.898438 31 -13.859375 C 31 -17.128906 29.78125 -19.609375 27.34375 -21.296875 C 24.90625 -22.984375 20.796875 -23.828125 15.015625 -23.828125 L 4.84375 -23.828125 L 7.296875 -47.78125 L 33.453125 -47.78125 L 33.453125 -43.421875 L 11.609375 -43.421875 L 9.96875 -28.1875 Z M 16.109375 -28.1875 "/></g></g><g style="fill:#d80032;fill-opacity:1;"><g transform="translate(105.118225, 72.593233)"><path style="stroke:none" d="M 22.59375 0.40625 C 18.90625 0.40625 15.613281 -0.570312 12.71875 -2.53125 C 9.832031 -4.488281 7.582031 -7.296875 5.96875 -10.953125 C 4.351562 -14.617188 3.546875 -18.929688 3.546875 -23.890625 C 3.546875 -28.847656 4.351562 -33.160156 5.96875 -36.828125 C 7.582031 -40.492188 9.832031 -43.304688 12.71875 -45.265625 C 15.613281 -47.222656 18.90625 -48.203125 22.59375 -48.203125 C 26.28125 -48.203125 29.566406 -47.222656 32.453125 -45.265625 C 35.347656 -43.304688 37.613281 -40.492188 39.25 -36.828125 C 40.882812 -33.160156 41.703125 -28.847656 41.703125 -23.890625 C 41.703125 -18.929688 40.882812 -14.617188 39.25 -10.953125 C 37.613281 -7.296875 35.347656 -4.488281 32.453125 -2.53125 C 29.566406 -0.570312 26.28125 0.40625 22.59375 0.40625 Z M 22.59375 -4.09375 C 25.375 -4.09375 27.820312 -4.863281 29.9375 -6.40625 C 32.050781 -7.957031 33.695312 -10.210938 34.875 -13.171875 C 36.0625 -16.128906 36.65625 -19.703125 36.65625 -23.890625 C 36.65625 -28.078125 36.0625 -31.648438 34.875 -34.609375 C 33.695312 -37.566406 32.050781 -39.816406 29.9375 -41.359375 C 27.820312 -42.910156 25.375 -43.6875 22.59375 -43.6875 C 19.820312 -43.6875 17.375 -42.910156 15.25 -41.359375 C 13.132812 -39.816406 11.484375 -37.566406 10.296875 -34.609375 C 9.117188 -31.648438 8.53125 -28.078125 8.53125 -23.890625 C 8.53125 -19.703125 9.117188 -16.128906 10.296875 -13.171875 C 11.484375 -10.210938 13.132812 -7.957031 15.25 -6.40625 C 17.375 -4.863281 19.820312 -4.09375 22.59375 -4.09375 Z M 22.59375 -4.09375 "/></g></g><g style="fill:#d80032;fill-opacity:1;"><g transform="translate(150.306728, 72.593233)"><path style="stroke:none" d="M 22.59375 0.40625 C 18.90625 0.40625 15.613281 -0.570312 12.71875 -2.53125 C 9.832031 -4.488281 7.582031 -7.296875 5.96875 -10.953125 C 4.351562 -14.617188 3.546875 -18.929688 3.546875 -23.890625 C 3.546875 -28.847656 4.351562 -33.160156 5.96875 -36.828125 C 7.582031 -40.492188 9.832031 -43.304688 12.71875 -45.265625 C 15.613281 -47.222656 18.90625 -48.203125 22.59375 -48.203125 C 26.28125 -48.203125 29.566406 -47.222656 32.453125 -45.265625 C 35.347656 -43.304688 37.613281 -40.492188 39.25 -36.828125 C 40.882812 -33.160156 41.703125 -28.847656 41.703125 -23.890625 C 41.703125 -18.929688 40.882812 -14.617188 39.25 -10.953125 C 37.613281 -7.296875 35.347656 -4.488281 32.453125 -2.53125 C 29.566406 -0.570312 26.28125 0.40625 22.59375 0.40625 Z M 22.59375 -4.09375 C 25.375 -4.09375 27.820312 -4.863281 29.9375 -6.40625 C 32.050781 -7.957031 33.695312 -10.210938 34.875 -13.171875 C 36.0625 -16.128906 36.65625 -19.703125 36.65625 -23.890625 C 36.65625 -28.078125 36.0625 -31.648438 34.875 -34.609375 C 33.695312 -37.566406 32.050781 -39.816406 29.9375 -41.359375 C 27.820312 -42.910156 25.375 -43.6875 22.59375 -43.6875 C 19.820312 -43.6875 17.375 -42.910156 15.25 -41.359375 C 13.132812 -39.816406 11.484375 -37.566406 10.296875 -34.609375 C 9.117188 -31.648438 8.53125 -28.078125 8.53125 -23.890625 C 8.53125 -19.703125 9.117188 -16.128906 10.296875 -13.171875 C 11.484375 -10.210938 13.132812 -7.957031 15.25 -6.40625 C 17.375 -4.863281 19.820312 -4.09375 22.59375 -4.09375 Z M 22.59375 -4.09375 "/></g></g><g clip-rule="nonzero" clip-path="url(#1384fff1db)"><g style="fill:#ffffff;fill-opacity:1;"><g transform="translate(60.221556, 20.25785)"><path style="stroke:none" d="M 7.703125 -19.671875 C 9.878906 -19.671875 11.59375 -19.285156 12.84375 -18.515625 C 14.09375 -17.753906 14.71875 -16.394531 14.71875 -14.4375 C 14.71875 -12.445312 14.0625 -11.066406 12.75 -10.296875 C 11.445312 -9.535156 9.707031 -9.15625 7.53125 -9.15625 L 4.359375 -9.15625 L 4.359375 0 L 2.390625 0 L 2.390625 -19.671875 Z M 7.625 -11.078125 C 8.675781 -11.078125 9.566406 -11.171875 10.296875 -11.359375 C 11.035156 -11.546875 11.613281 -11.882812 12.03125 -12.375 C 12.445312 -12.875 12.65625 -13.5625 12.65625 -14.4375 C 12.65625 -15.6875 12.226562 -16.550781 11.375 -17.03125 C 10.53125 -17.519531 9.351562 -17.765625 7.84375 -17.765625 L 4.359375 -17.765625 L 4.359375 -11.078125 Z M 7.625 -11.078125 "/></g></g></g><g clip-rule="nonzero" clip-path="url(#7fc421245b)"><g style="fill:#ffffff;fill-opacity:1;"><g transform="translate(97.695539, 20.25785)"><path style="stroke:none" d="M 11.921875 0.5 C 9.953125 0.5 8.175781 0.0351562 6.59375 -0.890625 C 5.007812 -1.828125 3.769531 -3.082031 2.875 -4.65625 C 1.976562 -6.226562 1.53125 -7.925781 1.53125 -9.75 C 1.53125 -11.675781 1.988281 -13.429688 2.90625 -15.015625 C 3.820312 -16.609375 5.0625 -17.863281 6.625 -18.78125 C 8.1875 -19.707031 9.894531 -20.171875 11.75 -20.171875 C 13.707031 -20.171875 15.488281 -19.71875 17.09375 -18.8125 C 18.707031 -17.90625 19.972656 -16.660156 20.890625 -15.078125 C 21.816406 -13.503906 22.28125 -11.757812 22.28125 -9.84375 C 22.28125 -7.9375 21.820312 -6.191406 20.90625 -4.609375 C 20 -3.035156 18.753906 -1.789062 17.171875 -0.875 C 15.585938 0.0390625 13.835938 0.5 11.921875 0.5 Z M 11.859375 -1.421875 C 13.378906 -1.421875 14.78125 -1.78125 16.0625 -2.5 C 17.34375 -3.226562 18.351562 -4.234375 19.09375 -5.515625 C 19.84375 -6.804688 20.21875 -8.253906 20.21875 -9.859375 C 20.21875 -11.472656 19.828125 -12.914062 19.046875 -14.1875 C 18.273438 -15.46875 17.25 -16.460938 15.96875 -17.171875 C 14.695312 -17.890625 13.328125 -18.25 11.859375 -18.25 C 10.421875 -18.25 9.066406 -17.890625 7.796875 -17.171875 C 6.523438 -16.453125 5.503906 -15.441406 4.734375 -14.140625 C 3.972656 -12.847656 3.59375 -11.382812 3.59375 -9.75 C 3.59375 -8.1875 3.96875 -6.769531 4.71875 -5.5 C 5.476562 -4.226562 6.488281 -3.226562 7.75 -2.5 C 9.007812 -1.78125 10.378906 -1.421875 11.859375 -1.421875 Z M 11.859375 -1.421875 "/></g></g></g><g clip-rule="nonzero" clip-path="url(#d47b925078)"><g style="fill:#ffffff;fill-opacity:1;"><g transform="translate(143.445792, 20.25785)"><path style="stroke:none" d="M 8 -19.671875 C 10.25 -19.671875 11.929688 -19.203125 13.046875 -18.265625 C 14.160156 -17.335938 14.71875 -16.0625 14.71875 -14.4375 C 14.71875 -13.269531 14.429688 -12.289062 13.859375 -11.5 C 13.296875 -10.71875 12.503906 -10.128906 11.484375 -9.734375 C 10.460938 -9.347656 9.265625 -9.15625 7.890625 -9.15625 L 14.984375 0 L 12.546875 0 L 5.59375 -9.15625 L 4.359375 -9.15625 L 4.359375 0 L 2.390625 0 L 2.390625 -19.671875 Z M 7.890625 -11.078125 C 9.410156 -11.078125 10.582031 -11.347656 11.40625 -11.890625 C 12.238281 -12.441406 12.65625 -13.289062 12.65625 -14.4375 C 12.65625 -15.445312 12.300781 -16.253906 11.59375 -16.859375 C 10.882812 -17.460938 9.816406 -17.765625 8.390625 -17.765625 L 4.359375 -17.765625 L 4.359375 -11.078125 Z M 7.890625 -11.078125 "/></g></g></g><g clip-rule="nonzero" clip-path="url(#f4700e0b18)"><g style="fill:#ffffff;fill-opacity:1;"><g transform="translate(181.604899, 20.25785)"><path style="stroke:none" d="M 15.84375 -19.671875 L 17.8125 -19.671875 L 17.8125 0 L 17.375 0 L 4.359375 -14.875 L 4.359375 0 L 2.390625 0 L 2.390625 -19.671875 L 2.796875 -19.671875 L 15.84375 -4.609375 Z M 15.84375 -19.671875 "/></g></g></g></g></svg>