<svg width="3413" height="590" viewBox="0 0 3413 590" fill="none" xmlns="http://www.w3.org/2000/svg">
<path d="M2481.84 106.82C2585 100.476 2673.8 178.878 2680.3 282.028C2686.78 385.175 2608.5 474.09 2505.36 480.724C2402.02 487.37 2312.9 408.902 2306.4 305.55C2299.9 202.198 2378.48 113.178 2481.84 106.82ZM2500.22 404.892C2643.68 392.283 2619.06 168.634 2485.36 182.738C2344.94 198.42 2363.38 412.542 2500.22 404.892Z" fill="white"/>
<path d="M116.841 114.882C194.947 114.842 296.525 113.692 283.795 229.852C281.005 255.294 265.373 270.32 245.503 284.576C249.133 286.234 252.723 287.978 256.271 289.808C306.949 316.188 315.665 377.9 290.691 425.536C286.739 431.812 282.111 437.636 276.891 442.904C239.889 479.9 170.691 474.262 122.109 474.19L0.598625 473.876C-0.67937 355.15 0.460944 233.978 0.626946 115.062L116.841 114.882ZM222.601 356.714C218.914 307.552 119.323 321.138 81.0332 321.482C81.0992 349.062 80.6751 378.222 81.2871 405.666C113.857 405.816 186.079 410.642 210.605 395.376C221.525 382.252 223.913 374.223 222.601 356.714ZM204.789 218.616C207.253 169.028 115.415 181.742 81.0107 182.118L81.0752 256.656C112.367 257.118 164.599 261.6 191.695 248.62C202.461 237.698 204.021 234.108 204.789 218.616Z" fill="white"/>
<path d="M1187.07 114.816C1282.8 113.808 1380.61 114.824 1476.48 114.91L1476.38 166.25L1527.3 166.174L1527.6 217.784L1579 217.532L1578.89 474.026L1464.43 474.006L1464.41 328.09L1464.49 218.118L1301.3 218.098C1302.49 302.738 1301.72 389.21 1301.88 473.998L1186.77 474.02L1187.07 114.816Z" fill="#D2002E"/>
<path d="M2728.92 115.232C2782.94 115.2 2909.16 108.038 2955.1 124.004C2982.42 133.504 3006.58 151.922 3019.32 178.336C3033.08 206.856 3033.72 244.86 3023.2 274.51C3011.88 306.396 2989.04 324.264 2959.58 338.26C2983.64 380.062 3018.32 432.61 3044.88 473.865L2988.1 473.986L2951.04 474C2926.84 437.062 2898.24 388.39 2876.04 350.062L2809.94 350.028L2809.82 473.856C2783.04 474.202 2755.64 473.926 2728.82 473.946L2728.92 115.232ZM2934.32 266.964C2976.52 219.854 2927.74 176.694 2876.26 185.154C2862.56 187.401 2825.94 185.447 2810.08 185.613C2809.38 215.285 2809.12 249.546 2809.96 279.212C2843.78 279.432 2908.94 285.22 2934.32 266.964Z" fill="white"/>
<path d="M3088.84 115.068L3164.52 115.048C3200.4 162.094 3235.78 209.516 3270.64 257.308C3289.76 283.242 3312.06 315.198 3332.38 339.688C3328.94 273.66 3331.98 182.948 3332.28 115.054H3412.54L3412.56 471.498C3405.76 476.03 3347.64 474.11 3335.52 474.046C3279.86 402.05 3222.8 323.134 3169.04 249.448L3168.96 473.87C3142.38 474.132 3115.32 473.86 3088.7 473.842L3088.84 115.068Z" fill="#EEEEEE"/>
<path d="M1980.62 115.05C2030.98 114.962 2137.54 110.22 2181.14 119.502C2312.62 147.486 2309.5 340.357 2157.1 357.508C2127.02 359.052 2091.62 358.337 2061.12 358.389C2060.58 396.567 2061.02 435.544 2061.04 473.784C2034.5 474.134 2007.3 473.856 1980.68 473.886L1980.62 115.05ZM2192.72 231.686C2189.56 182.716 2140.06 184.192 2103.12 185.206C2089.58 185.578 2074.82 185.484 2061.08 185.654L2061.04 288.308C2095.2 288.554 2151.68 294.186 2177.18 274.67C2189.7 260.242 2193.96 250.812 2192.72 231.686Z" fill="white"/>
<path d="M856.687 0.0219727L973.117 0.0119629L973.071 115.488C939.577 114.838 904.189 115.406 870.541 115.388L870.563 474.32L973.141 474.228L973.129 589.99L856.611 589.956L856.679 484.028L754.941 483.982L755.043 104.48L856.677 104.38L856.687 0.0219727Z" fill="#D2002E"/>
<path d="M1628.33 0L1744.58 0.0180054L1744.54 104.502L1846.2 104.436L1846.22 483.994L1744.54 484.058L1744.6 589.974L1628.38 589.964V474.224L1730.76 474.236L1730.78 115.426L1628.33 115.454L1628.33 0Z" fill="#D2002E"/>
<path d="M578.801 115.02L618.875 115.38L618.837 185.426L430.149 185.69C429.767 209.106 429.797 232.53 430.241 255.946L596.427 255.93L596.365 323.944C541.321 324.686 485.087 324.182 429.951 324.238L430.069 403.042L562.121 402.93L623.265 402.874L623.107 473.902L349.595 473.962C348.537 358.476 347.487 230.032 350.073 115.118L578.801 115.02Z" fill="#EEEEEE"/>
<path d="M1022.87 114.908L1137.41 114.674C1134.89 229.866 1136.88 358.334 1137.27 474.018L1022.37 473.97C1022.46 358.526 1019.67 229.428 1022.87 114.908Z" fill="#D2002E"/>
</svg>
